<svg width="113" height="113" fill="none" xmlns="http://www.w3.org/2000/svg"><path d="M56.514 0h-.028C25.333 0 0 25.34 0 56.5c0 12.36 3.983 23.815 10.756 33.116l-7.041 20.99 21.717-6.943C34.366 109.582 45.023 113 56.514 113 87.667 113 113 87.653 113 56.5S87.667 0 56.514 0zM89.39 79.785c-1.363 3.85-6.773 7.041-11.088 7.974-2.952.628-6.808 1.13-19.79-4.252-16.603-6.879-27.296-23.751-28.13-24.846-.797-1.095-6.709-8.934-6.709-17.042 0-8.107 4.118-12.055 5.778-13.75 1.363-1.392 3.616-2.027 5.777-2.027.699 0 1.328.035 1.892.063 1.66.07 2.494.17 3.588 2.79 1.363 3.284 4.683 11.392 5.078 12.225.403.834.805 1.963.24 3.058-.53 1.13-.995 1.632-1.829 2.592-.833.96-1.624 1.695-2.458 2.726-.762.897-1.624 1.858-.663 3.517.96 1.625 4.28 7.042 9.167 11.392 6.306 5.615 11.42 7.409 13.249 8.171 1.363.566 2.987.431 3.983-.628 1.264-1.363 2.825-3.623 4.414-5.848 1.13-1.596 2.557-1.794 4.054-1.229 1.526.53 9.598 4.52 11.258 5.347 1.66.833 2.754 1.228 3.157 1.928.395.699.395 3.983-.968 7.84z" fill="#fff"/></svg>